<svg fill="#0073ff" viewBox="0 0 32 32" xmlns="http://www.w3.org/2000/svg"><path d="m9.038 18.019c.764 0 1.384-.62 1.384-1.384s-.62-1.384-1.384-1.384-1.384.62-1.384 1.384.62 1.384 1.384 1.384zm20.196-2.422 2.768.519c-1.773-2.897-5.449-4.584-5.449-4.584l2.724-.519c-3.07-1.384-7.006-2.249-7.006-2.249l2.162-1.124c-2.681-.649-7.481-.216-7.481-.216l1.816-1.384c-3.892.346-7.611 1.643-7.611 1.643l1.168-1.643s-5.319 1.297-8.606 4.324l.216.735c.778 2.811.476 5.016-.865 6.573-1.297 1.47-3.07 1.73-3.07 1.73l.303 2.033.692.043c4.497.086 6.79 1.514 6.79 4.195h2.032c0-1.946-.822-5.016-5.925-5.968.519-.433 1.038-1.038 1.47-1.773.951-1.643 1.254-3.676.822-6.054.822.043 1.989.13 3.114.432 2.811.865 4.541 2.595 5.535 4.93 1.859 4.541 3.979 7.265 6.487 8.303.735.303 3.373.865 5.406-.216 1.124-.605 2.033-1.557 2.595-2.811l.519.865c.649-2.249.13-4.238.13-4.238l1.514.951c-.778-2.768-2.249-4.498-2.249-4.498z"/></svg>